HIERARCHY
ROOT Hips
{
    OFFSET 0.000000 0.000000 0.000000
    CHANNELS 6 Xposition Yposition Zposition Zrotation Xrotation Yrotation
    JOINT Spine
    {
        OFFSET -0.000000 14.517291 0.000000
        CHANNELS 3 Zrotation Xrotation Yrotation
        JOINT Spine1
        {
            OFFSET -0.000000 37.558300 0.000000
            CHANNELS 3 Zrotation Xrotation Yrotation
            JOINT Neck
            {
                OFFSET -0.000000 37.404057 3.400369
                CHANNELS 3 Zrotation Xrotation Yrotation
                JOINT Head
                {
                    OFFSET -0.000000 24.785618 -3.540803
                    CHANNELS 3 Zrotation Xrotation Yrotation
                    End Site
                    {
                        OFFSET -0.000000 35.408028 0.000000
                    }
                }
            }
            JOINT LeftShoulder
            {
                OFFSET 6.992933 33.973492 -0.192664
                CHANNELS 3 Zrotation Xrotation Yrotation
                JOINT LeftArm
                {
                    OFFSET 21.527611 0.000000 0.000000
                    CHANNELS 3 Zrotation Xrotation Yrotation
                    JOINT LeftForeArm
                    {
                        OFFSET 56.353916 0.000000 0.000000
                        CHANNELS 3 Zrotation Xrotation Yrotation
                        JOINT LeftHand
                        {
                            OFFSET 47.774071 0.000000 0.000000
                            CHANNELS 3 Zrotation Xrotation Yrotation
                            End Site
                            {
                                OFFSET 26.556021 0.000000 0.000000
                            }
                        }
                    }
                }
            }
            JOINT RightShoulder
            {
                OFFSET -7.065357 33.973492 -0.192664
                CHANNELS 3 Zrotation Xrotation Yrotation
                JOINT RightArm
                {
                    OFFSET -21.527611 0.000000 0.000000
                    CHANNELS 3 Zrotation Xrotation Yrotation
                    JOINT RightForeArm
                    {
                        OFFSET -56.353916 0.000000 0.000000
                        CHANNELS 3 Zrotation Xrotation Yrotation
                        JOINT RightHand
                        {
                            OFFSET -47.774071 0.000000 0.000000
                            CHANNELS 3 Zrotation Xrotation Yrotation
                            End Site
                            {
                                OFFSET -26.556021 0.000000 0.000000
                            }
                        }
                    }
                }
            }
        }
    }
    JOINT LeftUpLeg
    {
        OFFSET 17.704014 0.000000 0.000000
        CHANNELS 3 Zrotation Xrotation Yrotation
        JOINT LeftLeg
        {
            OFFSET -0.000000 -81.181816 0.000000
            CHANNELS 3 Zrotation Xrotation Yrotation
            JOINT LeftFoot
            {
                OFFSET -0.000000 -62.821102 0.000000
                CHANNELS 3 Zrotation Xrotation Yrotation
                JOINT LeftToeBase
                {
                    OFFSET -0.000000 -11.507608 26.556021
                    CHANNELS 3 Zrotation Xrotation Yrotation
                    End Site
                    {
                        OFFSET -0.000000 0.000000 7.081605
                    }
                }
            }
        }
    }
    JOINT RightUpLeg
    {
        OFFSET -17.704014 0.000000 0.000000
        CHANNELS 3 Zrotation Xrotation Yrotation
        JOINT RightLeg
        {
            OFFSET -0.000000 -81.181816 0.000000
            CHANNELS 3 Zrotation Xrotation Yrotation
            JOINT RightFoot
            {
                OFFSET -0.000000 -62.821102 0.000000
                CHANNELS 3 Zrotation Xrotation Yrotation
                JOINT RightToeBase
                {
                    OFFSET -0.000000 -11.507608 26.556021
                    CHANNELS 3 Zrotation Xrotation Yrotation
                    End Site
                    {
                        OFFSET -0.000000 0.000000 7.081605
                    }
                }
            }
        }
    }
}
MOTION
Frames:    14
Frame Time:    0.008333
5.229912    148.944595    -88.255562    -3.764835    2.604828    -6.716534    4.543068    2.470678    8.980632    -2.942958    -2.610725    2.960842    5.208869    1.306309    -3.589417    4.895002    -1.646358    -3.683242    -0.915745    5.805878    -8.631350    -37.614578    19.356768    -34.212830    -8.326008    -21.788132    -122.090370    -9.585156    -34.449570    -9.057180    -3.720739    9.715063    5.491611    22.998787    11.593080    57.745644    0.103702    13.972068    38.284145    -19.181351    7.173289    39.103302    5.158765    -0.053076    -20.180117    -11.388560    43.544071    -29.889221    28.601288    -29.337830    59.559959    0.000000    0.000000    0.000000    -1.771085    -32.882778    13.595953    5.597909    6.541350    -3.537318    5.909258    23.482595    -8.819621    0.000000    0.000000    0.000000    
5.252742    148.959183    -88.224556    -3.759793    2.567865    -6.600280    4.511668    2.455002    8.936169    -2.922352    -2.587012    2.946643    5.178123    1.315223    -3.632941    4.999472    -1.626144    -3.708446    -0.879410    5.784744    -8.703847    -37.478542    19.338980    -34.340309    -8.292925    -21.886759    -122.079582    -10.375347    -34.396091    -9.530948    -3.683324    9.706166    5.419657    22.985136    11.587605    57.626186    0.125892    13.848756    38.174965    -19.175426    7.112039    38.732384    5.172055    -0.048158    -20.183905    -11.346646    43.561607    -29.991932    28.477762    -29.394653    59.496075    0.000000    0.000000    0.000000    -1.837173    -32.908176    13.631907    5.638954    6.706802    -3.617950    5.862647    23.400114    -8.872001    0.000000    0.000000    0.000000    
5.275918    148.973251    -88.196060    -3.759145    2.529554    -6.469401    4.492267    2.451033    8.885366    -2.907266    -2.566414    2.930372    5.176342    1.350577    -3.700594    5.004439    -1.663812    -3.774622    -0.848714    5.754843    -8.764523    -37.323719    19.309511    -34.506714    -8.166061    -21.996826    -122.029785    -9.900148    -34.332722    -9.363831    -3.663184    9.701076    5.340712    22.954058    11.622083    57.519531    0.019157    13.787933    37.995258    -19.162779    7.070259    38.842628    5.197187    -0.057406    -20.259251    -11.394407    43.581512    -29.954786    28.320984    -29.486036    59.387398    0.000000    0.000000    0.000000    -1.905139    -32.937565    13.669366    5.678438    6.884430    -3.681461    5.848905    23.308626    -8.965272    0.000000    0.000000    0.000000    
5.298778    148.986847    -88.171135    -3.752733    2.492003    -6.315879    4.476722    2.454802    8.816132    -2.910034    -2.565376    2.907189    5.134502    1.367076    -3.752185    5.105507    -1.648908    -3.806670    -0.813041    5.763704    -8.814857    -37.166515    19.308443    -34.663216    -8.066473    -22.172182    -122.006927    -10.029621    -34.318573    -9.418617    -3.637209    9.683414    5.284030    22.918644    11.720123    57.389263    -0.163011    13.656352    37.820107    -19.095936    7.007025    38.921806    5.223389    -0.088020    -20.394096    -11.495741    43.615185    -29.939901    28.170166    -29.549877    59.340435    0.000000    0.000000    0.000000    -1.991120    -32.963799    13.628115    5.711029    7.065272    -3.647513    5.854714    23.202328    -9.118278    0.000000    0.000000    0.000000    
5.320360    148.996658    -88.156448    -3.753272    2.461533    -6.146568    4.473293    2.474779    8.738347    -2.916401    -2.589229    2.880755    5.124555    1.385756    -3.795929    5.139632    -1.641288    -3.844995    -0.778913    5.758235    -8.861167    -37.044350    19.292255    -34.779518    -7.966808    -22.302612    -121.967918    -10.193495    -34.251274    -9.568800    -3.628202    9.681553    5.227189    22.903502    11.806847    57.258999    -0.289430    13.452145    37.741001    -19.020893    6.902326    38.741169    5.263764    -0.134075    -20.507221    -11.579485    43.656746    -29.879421    28.033861    -29.632099    59.220757    0.000000    0.000000    0.000000    -2.079977    -32.997280    13.553631    5.739366    7.249118    -3.561842    5.867252    23.087669    -9.292953    0.000000    0.000000    0.000000    
5.337356    149.008133    -88.151161    -3.759255    2.432979    -5.972648    4.471250    2.497363    8.655931    -2.914389    -2.606213    2.853186    5.065852    1.415908    -3.857081    5.231737    -1.661697    -3.883975    -0.749835    5.755980    -8.887466    -36.920879    19.279997    -34.895840    -7.903049    -22.409891    -121.939400    -10.269052    -34.228958    -9.686130    -3.626237    9.683661    5.172567    22.898705    11.877102    57.139923    -0.448715    13.285620    37.617554    -18.935909    6.800436    38.827110    5.309852    -0.198044    -20.610941    -11.658013    43.721291    -29.839298    27.810760    -29.759693    59.085732    0.000000    0.000000    0.000000    -2.159932    -33.039822    13.493960    5.765912    7.440331    -3.537706    5.867007    22.992567    -9.435693    0.000000    0.000000    0.000000    
5.352838    149.015961    -88.144943    -3.776002    2.387657    -5.793550    4.486546    2.532755    8.576192    -2.925721    -2.609662    2.826859    5.042671    1.439875    -3.913698    5.273973    -1.684298    -3.931050    -0.710109    5.749691    -8.923969    -36.828262    19.244186    -34.990170    -7.832468    -22.502274    -121.894852    -10.407989    -34.172939    -9.825892    -3.609120    9.663301    5.125273    22.915062    11.930442    56.994354    -0.593022    13.144537    37.493523    -18.885792    6.711024    38.889507    5.359459    -0.242134    -20.670115    -11.681213    43.789394    -29.837944    27.551044    -29.953222    58.954582    0.000000    0.000000    0.000000    -2.223658    -33.067417    13.423560    5.781870    7.634939    -3.553442    5.852610    22.916161    -9.528272    0.000000    0.000000    0.000000    
5.362166    149.025909    -88.136307    -3.805736    2.343338    -5.620784    4.520628    2.560486    8.507732    -2.945504    -2.599710    2.804465    5.022395    1.458652    -3.973798    5.313467    -1.706581    -3.982826    -0.665380    5.739225    -8.972037    -36.751194    19.238174    -35.059734    -7.809499    -22.612820    -121.902161    -10.884430    -34.186340    -10.057712    -3.591194    9.663430    5.063666    22.942667    11.944299    56.868771    -0.670770    12.973884    37.402969    -18.786873    6.615751    38.795773    5.423423    -0.276637    -20.684923    -11.655397    43.855721    -29.919640    27.314829    -30.125689    58.835316    0.000000    0.000000    0.000000    -2.266793    -33.083328    13.357925    5.795722    7.801290    -3.578255    5.822088    22.867487    -9.622693    0.000000    0.000000    0.000000    
5.373946    149.032425    -88.125725    -3.828903    2.299271    -5.446296    4.552411    2.574132    8.437512    -2.967239    -2.571478    2.781748    4.996898    1.474088    -4.033603    5.357073    -1.719381    -4.033541    -0.624491    5.736355    -9.004860    -36.671879    19.226490    -35.156067    -7.738860    -22.751270    -121.864410    -10.976455    -34.182781    -10.111823    -3.568358    9.662275    5.016913    22.957762    11.947545    56.736168    -0.730723    12.764730    37.373844    -18.691189    6.501820    38.552902    5.476539    -0.295200    -20.671686    -11.591369    43.895844    -30.016417    27.018793    -30.364908    58.712532    0.000000    0.000000    0.000000    -2.331659    -33.093838    13.288076    5.830239    7.954622    -3.582239    5.789100    22.798504    -9.719124    0.000000    0.000000    0.000000    
5.383525    149.044296    -88.107002    -3.849595    2.242953    -5.274622    4.581256    2.582449    8.372349    -2.991455    -2.517685    2.761234    4.982730    1.483389    -4.097330    5.389705    -1.730079    -4.091960    -0.580321    5.716274    -9.061091    -36.610542    19.210577    -35.226398    -7.673242    -22.860966    -121.832207    -10.660536    -34.205803    -10.002150    -3.543371    9.666166    4.966924    22.998512    11.907706    56.610676    -0.811236    12.683516    37.281666    -18.698244    6.439789    38.569542    5.536482    -0.277456    -20.674461    -11.544220    43.891811    -30.129972    26.861864    -30.486273    58.643223    0.000000    0.000000    0.000000    -2.387474    -33.096500    13.213939    5.842881    8.127619    -3.518984    5.818637    22.718927    -9.886529    0.000000    0.000000    0.000000    
5.388184    149.061829    -88.089249    -3.853551    2.193250    -5.108857    4.584507    2.580079    8.311779    -3.012792    -2.467121    2.741882    4.958598    1.516609    -4.171454    5.455720    -1.752990    -4.152957    -0.533604    5.707965    -9.096667    -36.552628    19.223759    -35.298313    -7.643940    -22.990267    -121.805107    -10.795783    -34.254913    -10.081107    -3.495396    9.655776    4.926604    23.024008    11.866671    56.472565    -0.861794    12.606203    37.187141    -18.701469    6.351801    38.701096    5.572613    -0.303326    -20.655254    -11.476052    43.857220    -30.246952    26.671240    -30.526808    58.507107    0.000000    0.000000    0.000000    -2.453069    -33.105743    13.175773    5.862612    8.299182    -3.518389    5.800635    22.645752    -10.004507    0.000000    0.000000    0.000000    
5.392268    149.078949    -88.072273    -3.844706    2.154219    -4.947910    4.573733    2.563630    8.257938    -3.022893    -2.413127    2.724828    4.915998    1.520267    -4.245274    5.522718    -1.726797    -4.214606    -0.507667    5.688475    -9.144566    -36.507339    19.235964    -35.331478    -7.622059    -23.114046    -121.787598    -10.922342    -34.313065    -10.161749    -3.473974    9.651299    4.876562    23.065630    11.833450    56.351826    -0.911839    12.503380    37.138935    -18.625879    6.301463    38.642090    5.612492    -0.282839    -20.628300    -11.397408    43.811890    -30.404041    26.549305    -30.601282    58.424736    0.000000    0.000000    0.000000    -2.527432    -33.121777    13.152319    5.882629    8.465056    -3.526161    5.783534    22.552692    -10.123478    0.000000    0.000000    0.000000    
5.398653    149.115067    -88.076111    -3.790210    2.154517    -4.795280    4.510632    2.520327    8.210155    -3.032207    -2.381006    2.708499    4.874213    1.541326    -4.327221    5.602878    -1.701078    -4.282008    -0.480677    5.689891    -9.184152    -36.415115    19.186117    -35.315075    -7.675459    -23.083624    -121.796227    -11.030334    -34.348999    -10.305072    -3.437324    9.652948    4.839289    23.091467    11.788526    56.231827    -0.946253    12.421510    37.090103    -18.658430    6.233617    38.554489    5.597753    -0.321262    -20.561495    -11.281111    43.786919    -30.583176    26.368488    -30.659977    58.321056    0.000000    0.000000    0.000000    -2.638686    -33.195564    13.167424    5.903212    8.638259    -3.576581    5.776869    22.496269    -10.224194    0.000000    0.000000    0.000000    
5.408043    149.139496    -88.070206    -3.741643    2.137701    -4.631323    4.461277    2.482584    8.158897    -3.043340    -2.334958    2.691532    4.814930    1.535742    -4.409243    5.699005    -1.624831    -4.348296    -0.463029    5.677599    -9.229702    -36.378014    19.200787    -35.347507    -7.695303    -23.174578    -121.796448    -10.908659    -34.474979    -10.237999    -3.415220    9.630461    4.793599    23.120544    11.788928    56.102394    -1.038423    12.352040    37.032307    -18.675135    6.167007    38.663612    5.580824    -0.345191    -20.507473    -11.143875    43.784351    -30.819775    26.228754    -30.697338    58.256443    0.000000    0.000000    0.000000    -2.763808    -33.248779    13.178618    5.944012    8.816773    -3.562845    5.795243    22.393793    -10.418432    0.000000    0.000000    0.000000    
